<svg xmlns="http://www.w3.org/2000/svg" xmlns:xlink="http://www.w3.org/1999/xlink" width="500" zoomAndPan="magnify" viewBox="0 0 375 374.999991" height="500" preserveAspectRatio="xMidYMid meet" version="1.0"><defs><g><g id="id1"/></g></defs><g fill="rgb(0%, 0%, 0%)" fill-opacity="1"><g transform="translate(0.0286698, 235.868403)"><g><path d="M 63.84375 -65.515625 L 63.84375 0 L 45.625 0 L 45.625 -26.296875 L 23.421875 -26.296875 L 23.421875 0 L 5.203125 0 L 5.203125 -65.515625 L 23.421875 -65.515625 L 23.421875 -40.890625 L 45.625 -40.890625 L 45.625 -65.515625 Z M 63.84375 -65.515625 "/></g></g></g><g fill="rgb(0%, 0%, 0%)" fill-opacity="1"><g transform="translate(69.078012, 235.868403)"><g><path d="M 55.015625 -26.671875 C 55.015625 -25.242188 54.921875 -23.816406 54.734375 -22.390625 L 20.265625 -22.390625 C 20.453125 -19.546875 21.238281 -17.425781 22.625 -16.03125 C 24.019531 -14.632812 25.800781 -13.9375 27.96875 -13.9375 C 31.007812 -13.9375 33.179688 -15.300781 34.484375 -18.03125 L 53.90625 -18.03125 C 53.101562 -14.4375 51.535156 -11.226562 49.203125 -8.40625 C 46.878906 -5.59375 43.953125 -3.378906 40.421875 -1.765625 C 36.890625 -0.148438 32.988281 0.65625 28.71875 0.65625 C 23.570312 0.65625 19 -0.425781 15 -2.59375 C 11.007812 -4.769531 7.882812 -7.867188 5.625 -11.890625 C 3.363281 -15.921875 2.234375 -20.660156 2.234375 -26.109375 C 2.234375 -31.566406 3.347656 -36.289062 5.578125 -40.28125 C 7.804688 -44.28125 10.914062 -47.363281 14.90625 -49.53125 C 18.90625 -51.695312 23.507812 -52.78125 28.71875 -52.78125 C 33.863281 -52.78125 38.414062 -51.726562 42.375 -49.625 C 46.34375 -47.519531 49.441406 -44.5 51.671875 -40.5625 C 53.898438 -36.632812 55.015625 -32.003906 55.015625 -26.671875 Z M 36.4375 -31.234375 C 36.4375 -33.460938 35.691406 -35.210938 34.203125 -36.484375 C 32.710938 -37.753906 30.851562 -38.390625 28.625 -38.390625 C 26.394531 -38.390625 24.566406 -37.785156 23.140625 -36.578125 C 21.710938 -35.367188 20.785156 -33.585938 20.359375 -31.234375 Z M 36.4375 -31.234375 "/></g></g></g><g fill="rgb(0%, 0%, 0%)" fill-opacity="1"><g transform="translate(126.324848, 235.868403)"><g><path d="M 2.234375 -26.109375 C 2.234375 -31.503906 3.207031 -36.210938 5.15625 -40.234375 C 7.101562 -44.265625 9.765625 -47.363281 13.140625 -49.53125 C 16.523438 -51.695312 20.289062 -52.78125 24.4375 -52.78125 C 28.03125 -52.78125 31.128906 -52.066406 33.734375 -50.640625 C 36.335938 -49.222656 38.351562 -47.304688 39.78125 -44.890625 L 39.78125 -52.140625 L 58 -52.140625 L 58 0 L 39.78125 0 L 39.78125 -7.25 C 38.351562 -4.832031 36.320312 -2.910156 33.6875 -1.484375 C 31.050781 -0.0546875 27.96875 0.65625 24.4375 0.65625 C 20.289062 0.65625 16.523438 -0.425781 13.140625 -2.59375 C 9.765625 -4.769531 7.101562 -7.882812 5.15625 -11.9375 C 3.207031 -16 2.234375 -20.722656 2.234375 -26.109375 Z M 39.78125 -26.109375 C 39.78125 -29.460938 38.863281 -32.097656 37.03125 -34.015625 C 35.207031 -35.929688 32.960938 -36.890625 30.296875 -36.890625 C 27.566406 -36.890625 25.300781 -35.945312 23.5 -34.0625 C 21.707031 -32.175781 20.8125 -29.523438 20.8125 -26.109375 C 20.8125 -22.765625 21.707031 -20.113281 23.5 -18.15625 C 25.300781 -16.207031 27.566406 -15.234375 30.296875 -15.234375 C 32.960938 -15.234375 35.207031 -16.191406 37.03125 -18.109375 C 38.863281 -20.035156 39.78125 -22.703125 39.78125 -26.109375 Z M 39.78125 -26.109375 "/></g></g></g><g fill="rgb(0%, 0%, 0%)" fill-opacity="1"><g transform="translate(189.519405, 235.868403)"><g><path d="M 23.421875 -68.78125 L 23.421875 0 L 5.203125 0 L 5.203125 -68.78125 Z M 23.421875 -68.78125 "/></g></g></g><g fill="rgb(0%, 0%, 0%)" fill-opacity="1"><g transform="translate(218.142809, 235.868403)"><g><path d="M 35.96875 -15.515625 L 35.96875 0 L 28.0625 0 C 14.738281 0 8.078125 -6.597656 8.078125 -19.796875 L 8.078125 -36.984375 L 1.671875 -36.984375 L 1.671875 -52.140625 L 8.078125 -52.140625 L 8.078125 -64.78125 L 26.390625 -64.78125 L 26.390625 -52.140625 L 35.875 -52.140625 L 35.875 -36.984375 L 26.390625 -36.984375 L 26.390625 -19.515625 C 26.390625 -18.085938 26.710938 -17.0625 27.359375 -16.4375 C 28.015625 -15.820312 29.117188 -15.515625 30.671875 -15.515625 Z M 35.96875 -15.515625 "/></g></g></g><g fill="rgb(0%, 0%, 0%)" fill-opacity="1"><g transform="translate(257.267664, 235.868403)"><g><path d="M 39.5 -52.609375 C 45.445312 -52.609375 50.171875 -50.609375 53.671875 -46.609375 C 57.171875 -42.609375 58.921875 -37.203125 58.921875 -30.390625 L 58.921875 0 L 40.703125 0 L 40.703125 -27.96875 C 40.703125 -30.945312 39.925781 -33.285156 38.375 -34.984375 C 36.832031 -36.691406 34.757812 -37.546875 32.15625 -37.546875 C 29.425781 -37.546875 27.285156 -36.691406 25.734375 -34.984375 C 24.191406 -33.285156 23.421875 -30.945312 23.421875 -27.96875 L 23.421875 0 L 5.203125 0 L 5.203125 -68.78125 L 23.421875 -68.78125 L 23.421875 -44.703125 C 25.035156 -47.054688 27.21875 -48.960938 29.96875 -50.421875 C 32.726562 -51.878906 35.90625 -52.609375 39.5 -52.609375 Z M 39.5 -52.609375 "/></g></g></g><g fill="rgb(100%, 8.628845%, 8.628845%)" fill-opacity="1"><g transform="translate(320.249191, 201.507346)"><g><path d="M 51.109375 -23.796875 L 36.15625 -23.796875 L 36.15625 -8.359375 L 18.6875 -8.359375 L 18.6875 -23.796875 L 3.625 -23.796875 L 3.625 -40.234375 L 18.6875 -40.234375 L 18.6875 -55.765625 L 36.15625 -55.765625 L 36.15625 -40.234375 L 51.109375 -40.234375 Z M 51.109375 -23.796875 "/></g></g></g></svg>